<svg height="512pt" viewBox="0 -67 512 512" width="512pt" xmlns="http://www.w3.org/2000/svg" xmlns:xlink="http://www.w3.org/1999/xlink"><linearGradient id="linear0" gradientUnits="userSpaceOnUse" x1="0" x2="512" y1="188.5" y2="188.5"><stop offset="0" stop-color="#00f2fe"/><stop offset=".0208" stop-color="#03effe"/><stop offset=".2931" stop-color="#24d2fe"/><stop offset=".5538" stop-color="#3cbdfe"/><stop offset=".7956" stop-color="#4ab0fe"/><stop offset="1" stop-color="#4facfe"/></linearGradient><path d="m511.992188 297.988281c-.53125 43.660157-36.210938 79.011719-79.992188 79.011719h-312c-44.183594 0-80-35.816406-80-80v-6h-5.714844c-18.933594 0-34.285156-15.351562-34.285156-34.285156v-71.429688c0-18.933594 15.351562-34.285156 34.285156-34.285156h5.714844v-6c0-44.183594 35.816406-80 80-80h25.730469c11.148437 0 20.148437 9.117188 19.996093 20.269531-.148437 10.941407-9.054687 19.730469-19.996093 19.730469h-25.730469c-22.089844 0-40 17.910156-40 40v26c0 11.046875-8.953125 20-20 20h-20v60h20c11.046875 0 20 8.953125 20 20v26c0 22.089844 17.910156 40 40 40h312c22.195312 0 39.71875-18.070312 40.003906-40.261719.136719-10.96875 9.109375-19.808593 20.128906-19.738281 11.210938.074219 20 9.78125 19.859376 20.988281zm-79.992188-232.988281h-27c-10.988281 0-19.917969 8.863281-20 19.851562-.082031 11.101563 8.894531 20.148438 20 20.148438h27c22.089844 0 40 17.910156 40 40v51.519531c0 10.847657 8.433594 20.082031 19.269531 20.46875 11.378907.402344 20.730469-8.699219 20.730469-19.988281v-52c0-44.183594-35.816406-80-80-80zm-207.6875 47h40.175781l-26.875 74.492188c-.417969.914062-.609375 1.75-.613281 2.507812-.015625 3.144531 2.714844 5.015625 6.210938 5 2.453124-.011719 5.050781-.996094 6.761718-2.699219l94.410156-108.011719c8.195313-9.476562 1.578126-24.289062-11-24.289062h-46.316406l36.59375-59h-70.984375l-46.082031 82.167969c-7.53125 13.421875 2.242188 29.832031 17.71875 29.832031zm0 0" fill="url(#linear0)"/></svg>