<?xml version="1.0" encoding="iso-8859-1"?>
<!-- Generator: Adobe Illustrator 19.0.0, SVG Export Plug-In . SVG Version: 6.00 Build 0)  -->
<svg version="1.1" id="Capa_1" xmlns="http://www.w3.org/2000/svg" xmlns:xlink="http://www.w3.org/1999/xlink" x="0px" y="0px"
	 viewBox="0 0 512 512" style="enable-background:new 0 0 512 512;" xml:space="preserve">
<linearGradient id="SVGID_1_" gradientUnits="userSpaceOnUse" x1="0" y1="258" x2="512" y2="258" gradientTransform="matrix(1 0 0 -1 0 514)">
	<stop  offset="0" style="stop-color:#00F2FE"/>
	<stop  offset="0.021" style="stop-color:#03EFFE"/>
	<stop  offset="0.293" style="stop-color:#24D2FE"/>
	<stop  offset="0.554" style="stop-color:#3CBDFE"/>
	<stop  offset="0.796" style="stop-color:#4AB0FE"/>
	<stop  offset="1" style="stop-color:#4FACFE"/>
</linearGradient>
<path style="fill:url(#SVGID_1_);" d="M417,337c-11.046,0-20-8.954-20-20V195c0-11.046,8.954-20,20-20s20,8.954,20,20v122
	C437,328.046,428.046,337,417,337z M367,317V195c0-11.046-8.954-20-20-20s-20,8.954-20,20v122c0,11.046,8.954,20,20,20
	S367,328.046,367,317z M297,317V195c0-11.046-8.954-20-20-20s-20,8.954-20,20v122c0,11.046,8.954,20,20,20S297,328.046,297,317z
	 M512,332c0-11.046-8.954-20-20-20s-20,8.954-20,20c0,22.056-17.944,40-40,40H120c-22.056,0-40-17.944-40-40v-26
	c0-11.046-8.954-20-20-20H40v-60h20c11.046,0,20-8.954,20-20v-26c0-22.056,17.944-40,40-40h312c22.056,0,40,17.944,40,40v52
	c0,11.046,8.954,20,20,20s20-8.954,20-20v-52c0-44.112-35.888-80-80-80H120c-44.112,0-80,35.888-80,80v6h-5.714
	C15.38,186,0,201.38,0,220.286v71.429C0,310.62,15.38,326,34.286,326H40v6c0,44.112,35.888,80,80,80h312
	C476.112,412,512,376.112,512,332z"/>
<g>
</g>
<g>
</g>
<g>
</g>
<g>
</g>
<g>
</g>
<g>
</g>
<g>
</g>
<g>
</g>
<g>
</g>
<g>
</g>
<g>
</g>
<g>
</g>
<g>
</g>
<g>
</g>
<g>
</g>
</svg>
