<?xml version="1.0" encoding="iso-8859-1"?>
<!-- Generator: Adobe Illustrator 19.0.0, SVG Export Plug-In . SVG Version: 6.00 Build 0)  -->
<svg version="1.1" id="Capa_1" xmlns="http://www.w3.org/2000/svg" xmlns:xlink="http://www.w3.org/1999/xlink" x="0px" y="0px"
	 viewBox="0 0 512 512" style="enable-background:new 0 0 512 512;" xml:space="preserve">
<linearGradient id="SVGID_1_" gradientUnits="userSpaceOnUse" x1="93.9993" y1="257.9994" x2="418.0004" y2="257.9994" gradientTransform="matrix(1 0 0 -1 0 513.9993)">
	<stop  offset="0" style="stop-color:#00F2FE"/>
	<stop  offset="0.021" style="stop-color:#03EFFE"/>
	<stop  offset="0.293" style="stop-color:#24D2FE"/>
	<stop  offset="0.554" style="stop-color:#3CBDFE"/>
	<stop  offset="0.796" style="stop-color:#4AB0FE"/>
	<stop  offset="1" style="stop-color:#4FACFE"/>
</linearGradient>
<path style="fill:url(#SVGID_1_);" d="M410.853,358.123L288.442,255.446L410.853,152.77c4.55-3.815,7.168-9.455,7.147-15.393
	s-2.678-11.559-7.253-15.343l-142-117.446c-5.971-4.938-14.256-5.981-21.264-2.684C240.474,5.203,236,12.253,236,20v191.459
	l-109.147-91.552c-8.463-7.1-21.077-5.992-28.176,2.471c-7.099,8.462-5.992,21.077,2.471,28.176L226.2,255.446L101.147,360.339
	c-8.463,7.099-9.569,19.713-2.471,28.176c7.098,8.462,19.713,9.57,28.176,2.471L236,299.435V492c0,7.764,4.493,14.826,11.525,18.115
	c2.705,1.266,5.597,1.885,8.472,1.885c4.599,0,9.153-1.586,12.82-4.647l76-63.451c8.479-7.079,9.614-19.691,2.535-28.17
	c-7.08-8.48-19.691-9.615-28.17-2.535L276,449.248v-152.03l109.147,91.552c3.746,3.143,8.307,4.678,12.842,4.678
	c5.709,0,11.378-2.432,15.334-7.148C420.422,377.837,419.315,365.222,410.853,358.123z M276,62.496l90.75,75.059L276,213.674V62.496
	z"/>
<g>
</g>
<g>
</g>
<g>
</g>
<g>
</g>
<g>
</g>
<g>
</g>
<g>
</g>
<g>
</g>
<g>
</g>
<g>
</g>
<g>
</g>
<g>
</g>
<g>
</g>
<g>
</g>
<g>
</g>
</svg>
